<svg id="eOQ84ZvD5Sa1" xmlns="http://www.w3.org/2000/svg" xmlns:xlink="http://www.w3.org/1999/xlink" viewBox="0 0 2420 725" shape-rendering="geometricPrecision" text-rendering="geometricPrecision" project-id="4bd8ae0d4d844fdab4facea438e5c987" export-id="13f7ca3650084afc9ca05809aa8ac143" cached="false"><defs><linearGradient id="eOQ84ZvD5Sa7-fill" x1="338.99" y1="1507.1" x2="1768.02" y2="1507.1" spreadMethod="pad" gradientUnits="userSpaceOnUse" gradientTransform="translate(0 0)"><stop id="eOQ84ZvD5Sa7-fill-0" offset="0%" stop-color="#4195f9"/><stop id="eOQ84ZvD5Sa7-fill-1" offset="100%" stop-color="#0574e2"/></linearGradient><linearGradient id="eOQ84ZvD5Sa8-fill" x1="0" y1="-56.88" x2="0" y2="55.35" spreadMethod="pad" gradientUnits="userSpaceOnUse" gradientTransform="translate(0 0)"><stop id="eOQ84ZvD5Sa8-fill-0" offset="0%" stop-color="#ff421d"/><stop id="eOQ84ZvD5Sa8-fill-1" offset="100%" stop-color="#ff8f57"/></linearGradient><linearGradient id="eOQ84ZvD5Sa9-fill" x1="2.16" y1="-86.49" x2="-2.07" y2="82.92" spreadMethod="pad" gradientUnits="userSpaceOnUse" gradientTransform="translate(0 0)"><stop id="eOQ84ZvD5Sa9-fill-0" offset="0%" stop-color="#ff421d"/><stop id="eOQ84ZvD5Sa9-fill-1" offset="100%" stop-color="#ff8f57"/></linearGradient><linearGradient id="eOQ84ZvD5Sa10-fill" x1="0" y1="-56.88" x2="0" y2="58.53" spreadMethod="pad" gradientUnits="userSpaceOnUse" gradientTransform="translate(0 0)"><stop id="eOQ84ZvD5Sa10-fill-0" offset="0%" stop-color="#ff421d"/><stop id="eOQ84ZvD5Sa10-fill-1" offset="100%" stop-color="#ff8f57"/></linearGradient><linearGradient id="eOQ84ZvD5Sa11-fill" x1="1806.75" y1="1148.38" x2="1746.72" y2="1204.61" spreadMethod="pad" gradientUnits="userSpaceOnUse" gradientTransform="translate(0 0)"><stop id="eOQ84ZvD5Sa11-fill-0" offset="0%" stop-color="#ff421d"/><stop id="eOQ84ZvD5Sa11-fill-1" offset="100%" stop-color="#ff8f57"/></linearGradient></defs><g transform="translate(-292.120117-1132.800049)"><path d="M1672.96,1853.59c-33.67,0-65.42-6.65-95.26-19.96s-55.34-32.46-76.51-57.46l52.92-52.32c15.52,17.34,33.52,30.6,53.98,39.77c20.46,9.18,41.58,13.76,63.35,13.76c14.92,0,27.92-2.06,39.01-6.2c11.09-4.13,19.6-10.13,25.55-17.99c5.94-7.86,8.92-17.34,8.92-28.43c0-10.48-2.92-19.25-8.77-26.31-5.85-7.05-14.92-13.35-27.22-18.9-12.3-5.54-29.44-11.34-51.41-17.39l-5.14-1.81c-23.59-6.25-44.45-13.86-62.6-22.83-18.14-8.97-33.57-21.92-46.27-38.86-12.7-16.93-19.05-38.1-19.05-63.51c0-22.38,5.49-42.64,16.48-60.78s27.47-32.56,49.44-43.24s48.38-16.03,79.23-16.03s57,5.09,82.71,15.27c25.7,10.18,48.33,24.45,67.89,42.79l-47.78,56.25c-12.3-11.49-27.32-20.97-45.06-28.43s-35.89-11.19-54.43-11.19c-12.7,0-24.14,1.97-34.32,5.9s-18.14,9.53-23.89,16.78c-5.75,7.26-8.62,15.73-8.62,25.4s3.22,17.64,9.68,23.89c6.45,6.25,14.87,11.44,25.25,15.57s25.45,9.22,45.21,15.27c1.01.2,2.01.51,3.02.91c1.01.41,2.01.71,3.02.91.8.2,1.61.51,2.42.91.8.41,1.61.71,2.42.91c28.43,9.28,51.86,19,70.31,29.18s33.16,23.24,44.15,39.16c10.99,15.93,16.48,35.49,16.48,58.67c0,26.61-6.61,49.7-19.81,69.25-13.21,19.56-31.55,34.63-55.04,45.21s-50.25,15.88-80.29,15.88h.03Z" stroke-width="0"/><path d="M2094.21,1854.2c-40.73,0-77.87-9.83-111.44-29.48-33.57-19.66-60.03-46.27-79.38-79.84s-29.03-70.51-29.03-110.83s9.68-77.31,29.03-110.98s45.81-60.18,79.38-79.53s70.71-29.03,111.44-29.03s77.57,9.73,111.13,29.18c33.57,19.46,60.03,45.97,79.38,79.53c19.35,33.57,29.03,70.51,29.03,110.83s-9.68,77.01-29.03,110.68-45.87,60.33-79.53,79.99c-33.67,19.66-70.66,29.48-110.98,29.48Zm0-78.63c24.39,0,47.07-6.25,68.04-18.75c20.96-12.5,37.65-29.53,50.05-51.11c12.4-21.57,18.6-45.36,18.6-71.37s-6.2-49.85-18.6-71.52-29.08-38.71-50.05-51.11-43.65-18.6-68.04-18.6-47.38,6.2-68.34,18.6c-20.97,12.4-37.65,29.44-50.05,51.11s-18.6,45.51-18.6,71.52s6.2,49.75,18.6,71.22s29.13,38.51,50.2,51.11c21.06,12.6,43.8,18.9,68.19,18.9Z" stroke-width="0"/><path d="M2390.27,1846.94v-424.88h303.31v74.39h-221.36v99.49h176.91v69.86h-176.91v106.75h225.9v74.39h-307.85Z" stroke-width="0"/></g><g transform="translate(-292.120117-1132.800049)"><polygon points="1124.22,1835.21 741.04,1452.03 375.99,1817.08 338.99,1780.09 741.04,1378.05 1124.95,1761.96 1731.77,1178.99 1768.02,1216.72 1124.22,1835.21" fill="url(#eOQ84ZvD5Sa7-fill)" stroke-width="0"/><circle r="55.61" transform="translate(357.49 1798.59)" fill="url(#eOQ84ZvD5Sa8-fill)" stroke-width="0"/><circle r="79.44" transform="translate(741.02 1415.35)" fill="url(#eOQ84ZvD5Sa9-fill)" stroke-width="0"/><circle r="52.96" transform="translate(1124.39 1798.59)" fill="url(#eOQ84ZvD5Sa10-fill)" stroke-width="0"/><polygon points="1696.39,1145.8 1805.81,1255.22 1805.81,1145.8 1696.39,1145.8" fill="url(#eOQ84ZvD5Sa11-fill)" stroke-width="0"/></g></svg>
