<?xml version="1.0" encoding="UTF-8"?>
<svg height="45px" id="Capa_1" data-name="Capa 1" xmlns="http://www.w3.org/2000/svg" xmlns:xlink="http://www.w3.org/1999/xlink" viewBox="0 0 2959.71 606.25">
  <defs>
    <style>
      .cls-1 {
        fill: url(#Degradado_sin_nombre_3);
      }

      .cls-1, .cls-2, .cls-3, .cls-4, .cls-5, .cls-6 {
        stroke-width: 0px;
      }

      .cls-2 {
        fill: url(#Degradado_sin_nombre_2);
      }

      .cls-3 {
        fill: url(#Degradado_sin_nombre_3-3);
      }

      .cls-4 {
        fill: url(#Degradado_sin_nombre_3-4);
      }

      .cls-5 {
        fill: url(#Degradado_sin_nombre_3-2);
      }

      .cls-6 {
        fill: #fff;
      }
    </style>
    <linearGradient id="Degradado_sin_nombre_2" data-name="Degradado sin nombre 2" x1="31.76" y1="309.2" x2="1254.72" y2="309.2" gradientUnits="userSpaceOnUse">
      <stop offset="0" stop-color="#4195f9"/>
      <stop offset="1" stop-color="#0574e2"/>
    </linearGradient>
    <linearGradient id="Degradado_sin_nombre_3" data-name="Degradado sin nombre 3" x1="47.59" y1="511.41" x2="47.59" y2="607.15" gradientUnits="userSpaceOnUse">
      <stop offset="0" stop-color="#ff421d"/>
      <stop offset="1" stop-color="#ff8f57"/>
    </linearGradient>
    <linearGradient id="Degradado_sin_nombre_3-2" data-name="Degradado sin nombre 3" x1="375.17" y1="159.44" x2="376.49" y2="304.81" xlink:href="#Degradado_sin_nombre_3"/>
    <linearGradient id="Degradado_sin_nombre_3-3" data-name="Degradado sin nombre 3" x1="703.9" y1="508.33" x2="703.9" y2="616.7" xlink:href="#Degradado_sin_nombre_3"/>
    <linearGradient id="Degradado_sin_nombre_3-4" data-name="Degradado sin nombre 3" x1="1286.57" y1="-1.32" x2="1241.64" y2="45.38" xlink:href="#Degradado_sin_nombre_3"/>
  </defs>
  <g>
    <g>
      <path class="cls-6" d="M1173.38,605.73c-28.82,0-55.99-5.69-81.52-17.08-25.54-11.39-47.36-27.78-65.48-49.17l45.29-44.77c13.28,14.84,28.68,26.18,46.2,34.03,17.51,7.85,35.58,11.78,54.22,11.78,12.77,0,23.89-1.77,33.39-5.31,9.49-3.53,16.78-8.67,21.87-15.4,5.09-6.73,7.63-14.84,7.63-24.33,0-8.97-2.5-16.47-7.5-22.52-5.01-6.04-12.77-11.43-23.29-16.18-10.53-4.74-25.19-9.7-44-14.88l-4.4-1.55c-20.19-5.35-38.04-11.86-53.57-19.54-15.53-7.67-28.73-18.76-39.6-33.26-10.87-14.49-16.3-32.61-16.3-54.35,0-19.15,4.7-36.49,14.1-52.02,9.4-15.53,23.51-27.86,42.31-37.01,18.8-9.14,41.41-13.72,67.81-13.72s48.78,4.36,70.78,13.07c22,8.71,41.36,20.92,58.1,36.62l-40.89,48.14c-10.53-9.83-23.38-17.94-38.56-24.33-15.18-6.38-30.71-9.58-46.58-9.58-10.87,0-20.66,1.68-29.37,5.05-8.71,3.36-15.53,8.15-20.45,14.36-4.92,6.21-7.38,13.46-7.38,21.74s2.76,15.1,8.28,20.45c5.52,5.35,12.72,9.79,21.61,13.33,8.88,3.54,21.78,7.89,38.69,13.07.86.17,1.72.43,2.59.78.86.35,1.72.61,2.59.78.69.17,1.38.43,2.07.78.69.35,1.38.61,2.07.78,24.33,7.94,44.38,16.26,60.17,24.97,15.79,8.71,28.38,19.89,37.78,33.51,9.4,13.63,14.1,30.37,14.1,50.21,0,22.77-5.65,42.53-16.95,59.27-11.3,16.74-27,29.63-47.1,38.69-20.1,9.06-43.01,13.59-68.71,13.59Z"/>
      <path class="cls-6" d="M1533.88,606.25c-34.85,0-66.64-8.41-95.37-25.23-28.73-16.82-51.37-39.6-67.94-68.32-16.56-28.73-24.84-60.34-24.84-94.85s8.28-66.16,24.84-94.98c16.56-28.81,39.21-51.5,67.94-68.06,28.73-16.56,60.52-24.84,95.37-24.84s66.38,8.33,95.11,24.97c28.73,16.65,51.37,39.34,67.94,68.06,16.56,28.73,24.84,60.35,24.84,94.85s-8.28,65.91-24.84,94.72c-16.56,28.82-39.25,51.63-68.06,68.45-28.82,16.82-60.47,25.23-94.98,25.23ZM1533.88,538.96c20.87,0,40.28-5.35,58.23-16.05,17.94-10.7,32.22-25.27,42.83-43.74,10.61-18.46,15.92-38.82,15.92-61.08s-5.31-42.66-15.92-61.21c-10.61-18.54-24.89-33.13-42.83-43.74-17.95-10.61-37.36-15.92-58.23-15.92s-40.55,5.31-58.49,15.92c-17.95,10.61-32.22,25.19-42.83,43.74-10.61,18.55-15.92,38.95-15.92,61.21s5.31,42.57,15.92,60.95c10.61,18.37,24.93,32.96,42.96,43.74,18.03,10.78,37.48,16.17,58.36,16.17Z"/>
      <path class="cls-6" d="M1787.25,600.04V236.42h259.58v63.67h-189.44v85.15h151.4v59.78h-151.4v91.36h193.32v63.67h-263.46Z"/>
    </g>
    <g>
      <polygon class="cls-2" points="703.76 590 375.83 262.07 63.42 574.49 31.76 542.83 375.83 198.76 704.39 527.31 1223.71 28.4 1254.72 60.69 703.76 590"/>
      <circle class="cls-1" cx="47.59" cy="558.66" r="47.59"/>
      <circle class="cls-5" cx="375.82" cy="230.68" r="67.99"/>
      <circle class="cls-3" cx="703.9" cy="558.66" r="45.33"/>
      <polygon class="cls-4" points="1193.42 0 1287.07 93.65 1287.07 0 1193.42 0"/>
    </g>
  </g>
  <g>
    <g>
      <path class="cls-6" d="M2127.52,282.45h20.07c.43,5.1,3.9,7.7,10.41,7.7,5.86,0,9.33-2.28,9.33-5.75,0-3.9-3.58-5.97-13.02-7.49-15.4-2.38-25.93-8.35-25.93-22.88,0-15.3,12.15-24.08,28.96-24.08s27.87,9.43,28.96,24.62h-19.74c-.65-4.44-3.9-6.83-9.44-6.83s-8.67,2.06-8.67,5.75,3.14,5.32,12.69,6.84c15.84,2.28,26.57,8.89,26.57,23.43,0,15.84-12.69,24.4-29.72,24.4-18.11,0-29.72-9.11-30.48-25.71Z"/>
      <path class="cls-6" d="M2226.23,289.17h11.07v17.9h-42.63v-17.9h11.07v-40.46h-10.85v-17.57h42.2v17.57h-10.85v40.46Z"/>
      <path class="cls-6" d="M2244.78,282.45h20.07c.43,5.1,3.9,7.7,10.41,7.7,5.86,0,9.33-2.28,9.33-5.75,0-3.9-3.58-5.97-13.02-7.49-15.4-2.38-25.93-8.35-25.93-22.88,0-15.3,12.15-24.08,28.96-24.08s27.87,9.43,28.96,24.62h-19.74c-.65-4.44-3.9-6.83-9.44-6.83s-8.67,2.06-8.67,5.75,3.14,5.32,12.69,6.84c15.84,2.28,26.57,8.89,26.57,23.43,0,15.84-12.69,24.4-29.72,24.4-18.11,0-29.72-9.11-30.48-25.71Z"/>
      <path class="cls-6" d="M2368.54,231.14v18.65h-18.98v57.27h-20.5v-57.27h-19.09v-18.65h58.57Z"/>
      <path class="cls-6" d="M2398.48,288.96h30.38v18.11h-50.55v-75.93h49.68v17.79h-29.5v11.39h27.23v17.46h-27.23v11.17Z"/>
      <path class="cls-6" d="M2502.61,231.14h16.49v75.93h-20.39v-21.91l.22-17.89-14,20.39h-9.65l-14.1-20.5.33,18v21.91h-20.4v-75.93h16.6l22.56,32.76,22.34-32.76Z"/>
      <path class="cls-6" d="M2573.55,231.14l27.66,73.65v2.28h-21.15l-3.58-11.72h-24.51l-3.8,11.72h-20.94v-2.28l27.56-73.65h18.76ZM2571.71,279.2l-7.48-21.48-7.48,21.48h14.97Z"/>
    </g>
    <g>
      <path class="cls-6" d="M2127.52,414.35c0-22.89,16.71-39.38,40.14-39.38s40.03,16.49,40.03,39.38-16.71,39.37-40.03,39.37-40.14-16.49-40.14-39.37ZM2186.75,414.35c0-11.61-8.03-19.85-19.09-19.85s-19.2,8.24-19.2,19.85,8.13,19.85,19.2,19.85,19.09-8.25,19.09-19.85Z"/>
      <path class="cls-6" d="M2248.9,376.39c16.81,0,27.66,10.74,27.66,27.44s-10.85,27.34-27.66,27.34h-9.87v21.15h-20.39v-75.93h30.26ZM2246.95,413.05c5.86,0,9.22-3.58,9.22-9s-3.36-9.11-9.22-9.11h-8.13v18.12h8.13Z"/>
      <path class="cls-6" d="M2305.96,434.2h30.37v18.11h-50.55v-75.93h49.68v17.79h-29.5v11.39h27.22v17.46h-27.22v11.17Z"/>
      <path class="cls-6" d="M2409.22,450.04v2.28h-22.34l-18.01-26.9v26.9h-20.28v-75.93h28.85c17.79,0,28.53,9.65,28.53,25.27,0,10.85-5.32,18.87-14.64,22.46l17.9,25.92ZM2368.76,411.42h8.13c5.53,0,8.78-2.82,8.78-8.13s-3.25-8.25-8.78-8.25h-8.13v16.38Z"/>
      <path class="cls-6" d="M2457.27,376.39l27.66,73.65v2.28h-21.15l-3.58-11.71h-24.51l-3.8,11.71h-20.93v-2.28l27.55-73.65h18.77ZM2455.43,424.44l-7.48-21.48-7.49,21.48h14.97Z"/>
      <path class="cls-6" d="M2540.58,376.39v18.66h-18.98v57.27h-20.5v-57.27h-19.09v-18.66h58.57Z"/>
      <path class="cls-6" d="M2578.76,434.42h11.06v17.9h-42.63v-17.9h11.07v-40.46h-10.85v-17.57h42.19v17.57h-10.85v40.46Z"/>
      <path class="cls-6" d="M2647.2,376.39h20.94v2.28l-28.09,73.65h-16.81l-28.2-73.65v-2.28h21.26l5.64,16.27,9.76,28.96,9.87-28.96,5.64-16.27Z"/>
      <path class="cls-6" d="M2669.44,414.35c0-22.89,16.71-39.38,40.14-39.38s40.03,16.49,40.03,39.38-16.71,39.37-40.03,39.37-40.14-16.49-40.14-39.37ZM2728.66,414.35c0-11.61-8.03-19.85-19.09-19.85s-19.2,8.24-19.2,19.85,8.13,19.85,19.2,19.85,19.09-8.25,19.09-19.85Z"/>
    </g>
    <g>
      <path class="cls-6" d="M2127.52,604.84v-75.93h30.26c23.32,0,39.59,15.3,39.59,37.97s-16.27,37.96-39.59,37.96h-30.26ZM2147.92,585.86h8.89c11.93,0,19.63-7.38,19.63-18.98s-7.7-18.98-19.63-18.98h-8.89v37.96Z"/>
      <path class="cls-6" d="M2228.51,586.73h30.37v18.11h-50.55v-75.93h49.68v17.79h-29.5v11.39h27.22v17.46h-27.22v11.17Z"/>
      <path class="cls-6" d="M2320.17,586.73h30.37v18.11h-50.55v-75.93h49.68v17.79h-29.5v11.39h27.22v17.46h-27.22v11.17Z"/>
      <path class="cls-6" d="M2358.67,580.22h20.07c.44,5.1,3.91,7.7,10.42,7.7,5.86,0,9.33-2.28,9.33-5.75,0-3.9-3.58-5.97-13.02-7.49-15.4-2.38-25.92-8.35-25.92-22.89,0-15.3,12.15-24.08,28.96-24.08s27.88,9.43,28.96,24.62h-19.74c-.65-4.45-3.9-6.83-9.43-6.83s-8.68,2.06-8.68,5.75,3.14,5.32,12.69,6.83c15.84,2.28,26.58,8.89,26.58,23.43,0,15.84-12.69,24.4-29.72,24.4-18.11,0-29.72-9.11-30.48-25.71Z"/>
      <path class="cls-6" d="M2482.44,528.91v18.66h-18.98v57.27h-20.5v-57.27h-19.09v-18.66h58.57Z"/>
      <path class="cls-6" d="M2552.83,602.56v2.28h-22.34l-18.01-26.9v26.9h-20.28v-75.93h28.85c17.79,0,28.53,9.65,28.53,25.27,0,10.85-5.32,18.87-14.64,22.46l17.9,25.92ZM2512.38,563.95h8.13c5.53,0,8.78-2.82,8.78-8.13s-3.25-8.24-8.78-8.24h-8.13v16.38Z"/>
      <path class="cls-6" d="M2600.89,528.91l27.66,73.65v2.28h-21.15l-3.58-11.71h-24.51l-3.8,11.71h-20.93v-2.28l27.55-73.65h18.77ZM2599.04,576.97l-7.48-21.48-7.49,21.48h14.97Z"/>
      <path class="cls-6" d="M2684.19,528.91v18.66h-18.98v57.27h-20.5v-57.27h-19.09v-18.66h58.57Z"/>
      <path class="cls-6" d="M2714.13,586.73h30.37v18.11h-50.55v-75.93h49.68v17.79h-29.5v11.39h27.22v17.46h-27.22v11.17Z"/>
      <path class="cls-6" d="M2830.73,562.76c1.19,25.92-15.08,43.49-39.05,43.49s-39.49-16.38-39.49-39.37,16.27-39.38,39.05-39.38c19.63,0,34.71,11.39,38.51,29.07h-20.72c-3.36-6.4-9.11-9.65-16.7-9.65-11.39,0-19.31,8.14-19.31,20.07s7.59,19.96,19.63,19.96c7.48,0,13.23-3.04,16.16-9.33h-20.5v-14.86h42.41Z"/>
      <path class="cls-6" d="M2869.68,586.94h11.06v17.9h-42.63v-17.9h11.07v-40.46h-10.85v-17.57h42.19v17.57h-10.85v40.46Z"/>
      <path class="cls-6" d="M2932.05,528.91l27.66,73.65v2.28h-21.15l-3.58-11.71h-24.51l-3.8,11.71h-20.93v-2.28l27.55-73.65h18.77ZM2930.2,576.97l-7.48-21.48-7.49,21.48h14.97Z"/>
    </g>
  </g>
</svg>