<svg id="eR1kxT4Vvor1" xmlns="http://www.w3.org/2000/svg" xmlns:xlink="http://www.w3.org/1999/xlink" viewBox="0 0 2055 606.25" shape-rendering="geometricPrecision" text-rendering="geometricPrecision" project-id="b7d012f90eec4b72a7b8d5428302aa29" export-id="0d73f2cbaafc4753965fb78075f183ff" cached="false"><defs><linearGradient id="eR1kxT4Vvor8-fill" x1="31.76" y1="309.2" x2="1254.72" y2="309.2" spreadMethod="pad" gradientUnits="userSpaceOnUse" gradientTransform="translate(0 0)"><stop id="eR1kxT4Vvor8-fill-0" offset="0%" stop-color="#4195f9"/><stop id="eR1kxT4Vvor8-fill-1" offset="100%" stop-color="#0574e2"/></linearGradient><linearGradient id="eR1kxT4Vvor9-fill" x1="0" y1="-47.25" x2="0" y2="48.49" spreadMethod="pad" gradientUnits="userSpaceOnUse" gradientTransform="translate(0 0)"><stop id="eR1kxT4Vvor9-fill-0" offset="0%" stop-color="#ff421d"/><stop id="eR1kxT4Vvor9-fill-1" offset="100%" stop-color="#ff8f57"/></linearGradient><linearGradient id="eR1kxT4Vvor10-fill" x1="-0.65" y1="-71.24" x2="0.67" y2="74.13" spreadMethod="pad" gradientUnits="userSpaceOnUse" gradientTransform="translate(0 0)"><stop id="eR1kxT4Vvor10-fill-0" offset="0%" stop-color="#ff421d"/><stop id="eR1kxT4Vvor10-fill-1" offset="100%" stop-color="#ff8f57"/></linearGradient><linearGradient id="eR1kxT4Vvor11-fill" x1="0" y1="-50.33" x2="0" y2="58.04" spreadMethod="pad" gradientUnits="userSpaceOnUse" gradientTransform="translate(0 0)"><stop id="eR1kxT4Vvor11-fill-0" offset="0%" stop-color="#ff421d"/><stop id="eR1kxT4Vvor11-fill-1" offset="100%" stop-color="#ff8f57"/></linearGradient><linearGradient id="eR1kxT4Vvor12-fill" x1="1286.57" y1="-1.32" x2="1241.64" y2="45.38" spreadMethod="pad" gradientUnits="userSpaceOnUse" gradientTransform="translate(0 0)"><stop id="eR1kxT4Vvor12-fill-0" offset="0%" stop-color="#ff421d"/><stop id="eR1kxT4Vvor12-fill-1" offset="100%" stop-color="#ff8f57"/></linearGradient></defs><g><g><path d="M1173.38,605.73c-28.82,0-55.99-5.69-81.52-17.08-25.54-11.39-47.36-27.78-65.48-49.17l45.29-44.77c13.28,14.84,28.68,26.18,46.2,34.03c17.51,7.85,35.58,11.78,54.22,11.78c12.77,0,23.89-1.77,33.39-5.31c9.49-3.53,16.78-8.67,21.87-15.4s7.63-14.84,7.63-24.33c0-8.97-2.5-16.47-7.5-22.52-5.01-6.04-12.77-11.43-23.29-16.18-10.53-4.74-25.19-9.7-44-14.88l-4.4-1.55c-20.19-5.35-38.04-11.86-53.57-19.54-15.53-7.67-28.73-18.76-39.6-33.26-10.87-14.49-16.3-32.61-16.3-54.35c0-19.15,4.7-36.49,14.1-52.02s23.51-27.86,42.31-37.01c18.8-9.14,41.41-13.72,67.81-13.72s48.78,4.36,70.78,13.07s41.36,20.92,58.1,36.62l-40.89,48.14c-10.53-9.83-23.38-17.94-38.56-24.33-15.18-6.38-30.71-9.58-46.58-9.58-10.87,0-20.66,1.68-29.37,5.05-8.71,3.36-15.53,8.15-20.45,14.36s-7.38,13.46-7.38,21.74s2.76,15.1,8.28,20.45s12.72,9.79,21.61,13.33c8.88,3.54,21.78,7.89,38.69,13.07.86.17,1.72.43,2.59.78.86.35,1.72.61,2.59.78.69.17,1.38.43,2.07.78s1.38.61,2.07.78c24.33,7.94,44.38,16.26,60.17,24.97s28.38,19.89,37.78,33.51c9.4,13.63,14.1,30.37,14.1,50.21c0,22.77-5.65,42.53-16.95,59.27s-27,29.63-47.1,38.69-43.01,13.59-68.71,13.59Z" fill="#fff" stroke-width="0"/><path d="M1533.88,606.25c-34.85,0-66.64-8.41-95.37-25.23s-51.37-39.6-67.94-68.32c-16.56-28.73-24.84-60.34-24.84-94.85s8.28-66.16,24.84-94.98c16.56-28.81,39.21-51.5,67.94-68.06s60.52-24.84,95.37-24.84s66.38,8.33,95.11,24.97c28.73,16.65,51.37,39.34,67.94,68.06c16.56,28.73,24.84,60.35,24.84,94.85s-8.28,65.91-24.84,94.72c-16.56,28.82-39.25,51.63-68.06,68.45-28.82,16.82-60.47,25.23-94.98,25.23h-.01Zm0-67.29c20.87,0,40.28-5.35,58.23-16.05c17.94-10.7,32.22-25.27,42.83-43.74c10.61-18.46,15.92-38.82,15.92-61.08s-5.31-42.66-15.92-61.21c-10.61-18.54-24.89-33.13-42.83-43.74-17.95-10.61-37.36-15.92-58.23-15.92s-40.55,5.31-58.49,15.92c-17.95,10.61-32.22,25.19-42.83,43.74s-15.92,38.95-15.92,61.21s5.31,42.57,15.92,60.95c10.61,18.37,24.93,32.96,42.96,43.74s37.48,16.17,58.36,16.17v.01Z" fill="#fff" stroke-width="0"/><path d="M1787.25,600.04v-363.62h259.58v63.67h-189.44v85.15h151.4v59.78h-151.4v91.36h193.32v63.67h-263.46v-.01Z" fill="#fff" stroke-width="0"/></g><g><polygon points="703.76,590 375.83,262.07 63.42,574.49 31.76,542.83 375.83,198.76 704.39,527.31 1223.71,28.4 1254.72,60.69 703.76,590" fill="url(#eR1kxT4Vvor8-fill)" stroke-width="0"/><circle r="47.59" transform="translate(47.59 558.66)" fill="url(#eR1kxT4Vvor9-fill)" stroke-width="0"/><circle r="67.99" transform="translate(375.82 230.68)" fill="url(#eR1kxT4Vvor10-fill)" stroke-width="0"/><circle r="45.33" transform="translate(703.9 558.66)" fill="url(#eR1kxT4Vvor11-fill)" stroke-width="0"/><polygon points="1193.42,0 1287.07,93.65 1287.07,0 1193.42,0" fill="url(#eR1kxT4Vvor12-fill)" stroke-width="0"/></g></g></svg>
